<?xml version="1.0" encoding="utf-8"?>
<!-- Generator: Adobe Illustrator 16.0.0, SVG Export Plug-In . SVG Version: 6.00 Build 0)  -->
<!DOCTYPE svg PUBLIC "-//W3C//DTD SVG 1.1//EN" "http://www.w3.org/Graphics/SVG/1.1/DTD/svg11.dtd">
<svg version="1.1" id="Capa_1" xmlns="http://www.w3.org/2000/svg" xmlns:xlink="http://www.w3.org/1999/xlink" x="0px" y="0px"
	 width="300px" height="300px" viewBox="0 0 300 300" enable-background="new 0 0 300 300" xml:space="preserve">
<g id="_x37_">
	
		<line fill="#FFFFFF" stroke="#484751" stroke-width="2.6322" stroke-linecap="square" stroke-miterlimit="10" x1="116.865" y1="255.475" x2="182.028" y2="255.475"/>
	
		<line fill="#FFFFFF" stroke="#484751" stroke-width="2.6322" stroke-linecap="square" stroke-miterlimit="10" x1="116.865" y1="237.741" x2="182.028" y2="237.741"/>
	
		<line fill="#FFFFFF" stroke="#484751" stroke-width="2.6322" stroke-linecap="square" stroke-miterlimit="10" x1="118.857" y1="220.032" x2="188.423" y2="220.032"/>
	
		<line fill="#FFFFFF" stroke="#484751" stroke-width="2.6322" stroke-linecap="square" stroke-miterlimit="10" x1="135.994" y1="273.214" x2="162.91" y2="273.214"/>
	<path fill="#FFFFFF" stroke="#484751" stroke-width="2.6322" stroke-linecap="square" stroke-miterlimit="10" d="M189.359,201.884
		c2.467-15.627,8.632-30.514,17.574-43.77c7.507-11.131,11.879-24.548,11.879-38.985c0-39.92-33.481-71.998-73.792-69.486
		c-35.503,2.207-63.979,31.914-64.911,67.622c-0.415,15.805,4.421,30.463,12.893,42.339c11.934,16.75,17.736,37.123,17.736,57.685
		v2.744h77.426"/>
	<g>
		<path fill="#FFFFFF" stroke="#484751" stroke-width="2.6322" stroke-linecap="square" stroke-miterlimit="10" d="M142.253,219.014
			c0,0-4.928-66.391-5.856-85.008c-0.512-10.26-1.296-24.247-14.461-24.247c-8.405,0-14.864,5.514-14.864,15.463
			c0,15.069,18.539,14.067,29.326,13.538h10.565"/>
		<path fill="#FFFFFF" stroke="#484751" stroke-width="2.6322" stroke-linecap="square" stroke-miterlimit="10" d="M156.653,219.014
			c0,0,4.796-64.699,5.849-85.008c0.532-10.259,1.296-24.247,14.469-24.247c8.404,0,14.855,5.514,14.855,15.463
			c0,8.689-5.213,12.991-13.464,13.213h-1.238"/>
	</g>
	
		<line fill="#FFFFFF" stroke="#484751" stroke-width="2.6322" stroke-linecap="square" stroke-miterlimit="10" x1="149.448" y1="30.665" x2="149.448" y2="27.214"/>
	
		<line fill="#FFFFFF" stroke="#484751" stroke-width="2.6322" stroke-linecap="square" stroke-miterlimit="10" x1="149.448" y1="30.665" x2="149.448" y2="27.214"/>
	
		<line fill="#FFFFFF" stroke="#484751" stroke-width="2.6322" stroke-linecap="square" stroke-miterlimit="10" x1="99.247" y1="47.037" x2="97.223" y2="44.252"/>
	
		<line fill="#FFFFFF" stroke="#484751" stroke-width="2.6322" stroke-linecap="square" stroke-miterlimit="10" x1="68.219" y1="89.911" x2="64.949" y2="88.842"/>
	
		<line fill="#FFFFFF" stroke="#484751" stroke-width="2.6322" stroke-linecap="square" stroke-miterlimit="10" x1="233.949" y1="143.966" x2="230.679" y2="142.898"/>
	
		<line fill="#FFFFFF" stroke="#484751" stroke-width="2.6322" stroke-linecap="square" stroke-miterlimit="10" x1="68.219" y1="142.898" x2="64.949" y2="143.966"/>
	
		<line fill="#FFFFFF" stroke="#484751" stroke-width="2.6322" stroke-linecap="square" stroke-miterlimit="10" x1="233.949" y1="88.842" x2="230.679" y2="89.911"/>
	
		<line fill="#FFFFFF" stroke="#484751" stroke-width="2.6322" stroke-linecap="square" stroke-miterlimit="10" x1="201.67" y1="44.252" x2="199.651" y2="47.037"/>
</g>
</svg>
