<?xml version="1.0"?>
<svg xmlns="http://www.w3.org/2000/svg" viewBox="0 0 16 16">
    <path d="M 10.375 2 C 9.87 2 9.3913438 2.1942969 9.0273438 2.5292969 C 8.1053438 1.8062969 6.6823594 1.8591094 5.8183594 2.6621094 C 5.3273594 2.5441094 4.8099844 2.7095469 4.4589844 3.0605469 C 3.2589844 2.7455469 2.1058125 3.6570313 2.0078125 4.8320312 C 1.4218125 5.0370313 1 5.596 1 6.25 C 1 6.6 1.1238906 6.9295 1.3378906 7.1875 C 1.1238906 7.4465 1 7.775 1 8.125 C 1 8.777 1.4170469 9.3321094 1.9980469 9.5371094 C 2.0160469 10.201109 2.4849062 10.771547 3.1289062 10.935547 C 3.2159062 10.983547 3.3150156 11.002094 3.4160156 10.996094 C 3.4130156 10.993094 3.64175 10.994234 3.71875 11.115234 C 3.76875 11.194234 3.9714531 11.665953 3.0644531 13.251953 C 2.9274531 13.491953 3.0119531 13.796594 3.2519531 13.933594 C 3.4889531 14.068594 3.7955938 13.987094 3.9335938 13.746094 C 4.7775937 12.272094 4.9835 11.235172 4.5625 10.576172 C 4.3005 10.165172 3.8590625 10.026953 3.5390625 10.001953 C 3.5070625 9.9919531 3.4754062 9.9835156 3.4414062 9.9785156 C 3.1864063 9.9455156 3 9.745 3 9.5 C 3 9.433 3.0140625 9.3676406 3.0390625 9.3066406 C 3.1090625 9.1466406 3.0668437 8.9691719 2.9648438 8.8261719 C 2.8718438 8.6941719 2.7011094 8.6230469 2.5371094 8.6230469 C 2.2661094 8.6260469 2 8.413 2 8.125 C 2 7.914 2.1366563 7.7321094 2.3476562 7.6621094 C 2.5516562 7.5951094 2.6894531 7.4035 2.6894531 7.1875 C 2.6894531 6.9715 2.5516563 6.7798906 2.3476562 6.7128906 C 2.1366563 6.6428906 2 6.461 2 6.25 C 2 5.985 2.2057969 5.7699531 2.4667969 5.7519531 C 2.6477969 5.7789531 2.79925 5.705125 2.90625 5.578125 C 3.00125 5.467125 3.0435313 5.3188281 3.0195312 5.1738281 C 3.0105312 5.1168281 3 5.06 3 5 C 3 4.448 3.448 4 4 4 C 4.128 4 4.2640156 4.0344219 4.4160156 4.1074219 C 4.6540156 4.2214219 4.9442656 4.1305312 5.0722656 3.8945312 C 5.1992656 3.6625313 5.4126563 3.5284063 5.7226562 3.6914062 C 5.9346562 3.8034062 6.1957031 3.7485 6.3457031 3.5625 C 6.9277031 2.8405 8.1047344 2.8490312 8.6777344 3.5820312 C 8.7807344 3.7130312 8.948375 3.7884844 9.109375 3.7714844 C 9.276375 3.7594844 9.4268125 3.6635781 9.5078125 3.5175781 C 9.6858125 3.1975781 10.018 3 10.375 3 C 10.811 3 11.191266 3.282125 11.322266 3.703125 C 11.367266 3.845125 11.473328 3.9605781 11.611328 4.0175781 C 11.748328 4.0735781 11.904156 4.0670937 12.035156 3.9960938 C 12.721156 3.6290937 13.5 4.167 13.5 4.875 C 13.5 5.073 13.440078 5.2656406 13.330078 5.4316406 C 13.254078 5.5466406 13.230719 5.6872656 13.261719 5.8222656 C 13.293719 5.9552656 13.378047 6.071625 13.498047 6.140625 C 13.812047 6.322625 14 6.644 14 7 C 14 7.552 13.552 8 13 8 C 12.754 8 12.515172 7.9044219 12.326172 7.7324219 C 12.185172 7.6024219 11.981734 7.5676719 11.802734 7.6386719 C 11.624734 7.7106719 11.503234 7.8773594 11.490234 8.0683594 C 11.455234 8.5913594 11.021 9 10.5 9 C 10.402 9 10.297688 8.9804063 10.179688 8.9414062 C 9.9266875 8.8514063 9.6526875 8.985375 9.5546875 9.234375 C 9.4036875 9.624375 9.039 9.875 8.625 9.875 L 8.5117188 9.8613281 C 8.2627188 9.8223281 8.0277969 9.9932813 7.9667969 10.238281 C 7.8557969 10.687281 7.459 11 7 11 L 6.8984375 11 C 5.9244375 10.99 5.7965781 11.255328 5.3925781 12.361328 C 5.3015781 12.613328 5.1852031 12.926359 5.0332031 13.318359 C 4.9322031 13.574359 5.0613594 13.865797 5.3183594 13.966797 C 5.3783594 13.989797 5.439 14 5.5 14 C 5.7 14 5.8887969 13.878641 5.9667969 13.681641 C 6.1227969 13.281641 6.2399844 12.961125 6.3339844 12.703125 C 6.4579844 12.364125 6.5740312 12.045766 6.5820312 12.009766 C 6.6230313 11.998766 6.7665312 11.999 6.8945312 12 L 7 12 C 7.779 12 8.4718281 11.550187 8.7988281 10.867188 C 9.4098281 10.814188 9.9511563 10.489328 10.285156 9.9863281 C 11.152156 10.096328 11.940922 9.6011406 12.294922 8.8691406 C 12.519922 8.9551406 12.757 9 13 9 C 14.103 9 15 8.103 15 7 C 15 6.452 14.769906 5.9335469 14.378906 5.5605469 C 14.458906 5.3425469 14.5 5.11 14.5 4.875 C 14.5 3.772 13.603 2.875 12.5 2.875 C 12.351 2.875 12.202641 2.8937344 12.056641 2.9277344 C 11.696641 2.3577344 11.071 2 10.375 2 z M 6 5 L 6 6.0703125 L 6.0703125 6.0703125 C 5.8455625 6.1380194 5.6434702 6.2533426 5.4765625 6.4101562 L 5.5019531 6.3632812 L 4.5683594 5.8359375 L 4.0761719 6.7070312 L 5.0097656 7.234375 L 5.03125 7.1972656 C 5.0112324 7.2948145 5 7.396625 5 7.5 C 5 7.6027151 5.0114808 7.7038118 5.03125 7.8007812 L 5.0097656 7.7636719 L 4.0761719 8.2890625 L 4.5664062 9.1601562 L 5.5 8.6347656 L 5.4746094 8.5898438 C 5.6417254 8.7471661 5.8450703 8.8618323 6.0703125 8.9296875 L 6 8.9296875 L 6 10 L 7 10 L 7 8.9296875 L 6.9296875 8.9296875 C 7.1544375 8.8619806 7.3565298 8.7466574 7.5234375 8.5898438 L 7.4980469 8.6367188 L 8.4316406 9.1640625 L 8.9238281 8.2929688 L 7.9902344 7.765625 L 7.96875 7.8027344 C 7.9887676 7.7051855 8 7.603375 8 7.5 C 8 7.396625 7.9887676 7.2948145 7.96875 7.1972656 L 7.9902344 7.234375 L 8.9238281 6.7089844 L 8.4335938 5.8378906 L 7.5 6.3632812 L 7.5273438 6.4121094 C 7.3598497 6.2538573 7.1558276 6.1384382 6.9296875 6.0703125 L 7 6.0703125 L 7 5 L 6 5 z M 6.5 7 C 6.775 7 7 7.225 7 7.5 C 7 7.775 6.775 8 6.5 8 C 6.225 8 6 7.775 6 7.5 C 6 7.225 6.225 7 6.5 7 z"/>
</svg>
