<?xml version="1.0"?>
<svg xmlns="http://www.w3.org/2000/svg" viewBox="0 0 16 16">
    <path d="M 2.4042969 1.1972656 L 1.6972656 1.9042969 L 2.0507812 2.2578125 L 2.7578125 2.9648438 L 3.1113281 3.3183594 L 3.8183594 2.6113281 L 3.4648438 2.2578125 L 2.7578125 1.5507812 L 2.4042969 1.1972656 z M 13.595703 1.1972656 L 13.242188 1.5507812 L 12.535156 2.2578125 L 12.181641 2.6113281 L 12.888672 3.3183594 L 13.242188 2.9648438 L 13.949219 2.2578125 L 14.302734 1.9042969 L 13.595703 1.1972656 z M 8 2 C 5.796781 2 4 3.796781 4 6 C 4 7.3833333 4.6041813 8.1815793 5.0957031 8.8574219 C 5.587225 9.5332644 6 10.111111 6 11.5 L 6 12 L 6 12.5 C 6 13.149016 6.42383 13.701366 7.0058594 13.908203 A 1 1 0 0 0 7 14 A 1 1 0 0 0 8 15 A 1 1 0 0 0 9 14 A 1 1 0 0 0 8.9960938 13.908203 C 9.5772186 13.700869 10 13.148365 10 12.5 L 10 11.5 C 10 10.111111 10.412775 9.5332644 10.904297 8.8574219 C 11.395819 8.1815793 12 7.3833333 12 6 C 12 3.796781 10.203219 2 8 2 z M 8 3 C 9.662781 3 11 4.337219 11 6 C 11 7.1166667 10.604181 7.5684207 10.095703 8.2675781 C 9.6521915 8.8774069 9.2131836 9.7418199 9.0917969 11 L 6.9082031 11 C 6.7868164 9.7418199 6.3478087 8.8774069 5.9042969 8.2675781 C 5.3958187 7.5684207 5 7.1166667 5 6 C 5 4.337219 6.337219 3 8 3 z M 1 6 L 1 7 L 1.5 7 L 2.5 7 L 3 7 L 3 6 L 2.5 6 L 1.5 6 L 1 6 z M 13 6 L 13 7 L 13.5 7 L 14.5 7 L 15 7 L 15 6 L 14.5 6 L 13.5 6 L 13 6 z M 3.1113281 9.6816406 L 2.7578125 10.035156 L 2.0507812 10.742188 L 1.6972656 11.095703 L 2.4042969 11.802734 L 2.7578125 11.449219 L 3.4648438 10.742188 L 3.8183594 10.388672 L 3.1113281 9.6816406 z M 12.888672 9.6816406 L 12.181641 10.388672 L 12.535156 10.742188 L 13.242188 11.449219 L 13.595703 11.802734 L 14.302734 11.095703 L 13.949219 10.742188 L 13.242188 10.035156 L 12.888672 9.6816406 z M 7 12 L 9 12 L 9 12.5 C 9 12.781469 8.7814686 13 8.5 13 L 8 13 L 7.5 13 C 7.2185314 13 7 12.781469 7 12.5 L 7 12 z"/>
</svg>
