<?xml version="1.0"?>
<svg xmlns="http://www.w3.org/2000/svg" viewBox="0 0 64 64">
    <path d="M 35 0 C 20.839 0 10.328813 9.41 10.007812 22.375 C 9.9998125 22.69 9.9503281 22.985 9.8613281 23.25 L 4.4414062 39.511719 C 4.2494062 40.087719 4.3272969 40.709703 4.6542969 41.220703 C 4.9812969 41.731703 5.5161406 42.063859 6.1191406 42.130859 L 9.109375 42.464844 C 9.617375 42.520844 10 42.946031 10 43.457031 L 10 52.53125 C 10 53.95125 10.606063 55.309812 11.664062 56.257812 C 12.722062 57.205813 14.141734 57.658953 15.552734 57.501953 L 18.451172 57.179688 L 18.455078 57.179688 L 23.841797 56.580078 L 23.308594 60.607422 C 23.194594 61.463422 23.456391 62.328516 24.025391 62.978516 C 24.595391 63.628516 25.41725 64.001953 26.28125 64.001953 L 52.777344 64.001953 C 53.626344 64.001953 54.440813 63.638813 55.007812 63.007812 C 55.574813 62.376812 55.850719 61.5315 55.761719 60.6875 L 54.324219 47.039062 C 54.188219 45.739062 54.414516 44.43925 54.978516 43.28125 C 58.263516 36.55325 60 29.194 60 22 C 60 9.047 49.72 0 35 0 z M 35 2 C 50.888 2 58 12.045 58 22 C 58 28.891 56.333641 35.947297 53.181641 42.404297 C 52.452641 43.900297 52.159937 45.574094 52.335938 47.246094 L 53.773438 60.894531 C 53.803437 61.181531 53.714484 61.456922 53.521484 61.669922 C 53.330484 61.882922 53.064344 62 52.777344 62 L 26.28125 62 C 25.98925 62 25.721297 61.878203 25.529297 61.658203 C 25.337297 61.438203 25.253016 61.159141 25.291016 60.869141 L 25.888672 56.351562 L 29.111328 55.992188 C 29.660328 55.931188 30.055141 55.437672 29.994141 54.888672 C 29.933141 54.339672 29.438625 53.940859 28.890625 54.005859 L 26.160156 54.308594 L 15.332031 55.511719 C 14.487031 55.605719 13.634047 55.334625 12.998047 54.765625 C 12.354047 54.189625 12 53.39625 12 52.53125 L 12 43.457031 C 12 41.926031 10.852078 40.645563 9.3300781 40.476562 L 6.3398438 40.142578 L 11.759766 23.882812 C 11.911766 23.428812 11.994813 22.938828 12.007812 22.423828 C 12.300813 10.589828 21.97 2 35 2 z M 35 5 C 34.448 5 34 5.448 34 6 L 34 8 C 34 8.552 34.448 9 35 9 C 35.552 9 36 8.552 36 8 L 36 6 C 36 5.448 35.552 5 35 5 z M 29.572266 5.7402344 C 29.443422 5.7224375 29.310031 5.729125 29.175781 5.765625 C 28.642781 5.908625 28.32575 6.4562344 28.46875 6.9902344 L 28.986328 8.9238281 C 29.106328 9.3708281 29.509172 9.6640625 29.951172 9.6640625 C 30.036172 9.6640625 30.123938 9.6548594 30.210938 9.6308594 C 30.743938 9.4878594 31.060969 8.9382969 30.917969 8.4042969 L 30.400391 6.4726562 C 30.293141 6.0729062 29.958797 5.793625 29.572266 5.7402344 z M 40.425781 5.7402344 C 40.039156 5.793625 39.704156 6.0729063 39.597656 6.4726562 L 39.080078 8.4042969 C 38.938078 8.9382969 39.254109 9.4888594 39.787109 9.6308594 C 39.874109 9.6538594 39.961875 9.6640625 40.046875 9.6640625 C 40.488875 9.6640625 40.892719 9.3708281 41.011719 8.9238281 L 41.529297 6.9902344 C 41.672297 6.4562344 41.355266 5.908625 40.822266 5.765625 C 40.688266 5.729125 40.554656 5.7224375 40.425781 5.7402344 z M 24.125 7.8867188 C 23.996141 7.9027812 23.86925 7.9441719 23.75 8.0136719 C 23.271 8.2896719 23.108766 8.9028594 23.384766 9.3808594 L 24.384766 11.111328 C 24.570766 11.432328 24.905953 11.611328 25.251953 11.611328 C 25.420953 11.611328 25.593 11.569516 25.75 11.478516 C 26.229 11.202516 26.391234 10.589328 26.115234 10.111328 L 25.115234 8.3808594 C 24.908234 8.0223594 24.511578 7.8385313 24.125 7.8867188 z M 45.873047 7.8886719 C 45.486187 7.840625 45.091766 8.0223594 44.884766 8.3808594 L 43.884766 10.113281 C 43.608766 10.590281 43.771 11.201516 44.25 11.478516 C 44.407 11.569516 44.579047 11.613281 44.748047 11.613281 C 45.094047 11.613281 45.430234 11.434281 45.615234 11.113281 L 46.615234 9.3808594 C 46.891234 8.9028594 46.728 8.291625 46.25 8.015625 C 46.13025 7.946375 46.002 7.9046875 45.873047 7.8886719 z M 34.96875 14 C 27.81775 14 22 19.81775 22 26.96875 C 22 30.37475 23.767172 32.846344 25.326172 35.027344 C 26.701172 36.950344 28 38.766859 28 41.005859 L 28 42.005859 L 28 43 C 28 46.86 31.14 50 35 50 C 38.86 50 42 46.86 42 43 L 42 42 L 42 41 C 42 38.762 43.285484 36.947391 44.646484 35.025391 C 46.189484 32.844391 47.939453 30.37275 47.939453 26.96875 C 47.938453 19.81775 42.12075 14 34.96875 14 z M 34.96875 16 C 41.01675 16 45.9375 20.92075 45.9375 26.96875 C 45.9375 29.73675 44.518672 31.744141 43.013672 33.869141 C 41.708672 35.712141 40.3655 37.611 40.0625 40 L 29.935547 40 C 29.628547 37.608 28.271125 35.709234 26.953125 33.865234 C 25.434125 31.741234 24 29.73375 24 26.96875 C 24 20.92075 28.92075 16 34.96875 16 z M 31 26 C 30.74425 26 30.488469 26.097469 30.292969 26.292969 C 29.901969 26.683969 29.901969 27.316031 30.292969 27.707031 L 32.292969 29.707031 C 32.487969 29.902031 32.744 30 33 30 C 33.256 30 33.512031 29.902031 33.707031 29.707031 C 34.098031 29.316031 34.098031 28.683969 33.707031 28.292969 L 31.707031 26.292969 C 31.511531 26.097469 31.25575 26 31 26 z M 39 26 C 38.74425 26 38.488469 26.097469 38.292969 26.292969 L 34.292969 30.292969 C 34.104969 30.479969 34 30.735 34 31 L 34 37 C 34 37.552 34.448 38 35 38 C 35.552 38 36 37.552 36 37 L 36 31.414062 L 39.707031 27.707031 C 40.098031 27.316031 40.098031 26.683969 39.707031 26.292969 C 39.511531 26.097469 39.25575 26 39 26 z M 40 42 L 40 43 C 40 45.757 37.757 48 35 48 C 32.243 48 30 45.757 30 43 L 30 42.005859 L 40 42 z"/>
</svg>
